<?xml version="1.0" standalone="no"?>
<svg xmlns="http://www.w3.org/2000/svg" width="1024" height="1331" viewBox="0 0 1000 1300"><defs><clipPath id="clip-path-dot-color"><rect x="250" y="514" width="20" height="20" transform="rotate(0,260,524)"/><rect x="250" y="614" width="20" height="20" transform="rotate(0,260,624)"/><rect x="250" y="654" width="20" height="20" transform="rotate(0,260,664)"/><rect x="250" y="674" width="20" height="20" transform="rotate(0,260,684)"/><rect x="270" y="514" width="20" height="20" transform="rotate(0,280,524)"/><rect x="270" y="574" width="20" height="20" transform="rotate(0,280,584)"/><rect x="270" y="594" width="20" height="20" transform="rotate(0,280,604)"/><rect x="270" y="614" width="20" height="20" transform="rotate(0,280,624)"/><rect x="270" y="634" width="20" height="20" transform="rotate(0,280,644)"/><rect x="290" y="514" width="20" height="20" transform="rotate(0,300,524)"/><rect x="290" y="534" width="20" height="20" transform="rotate(0,300,544)"/><rect x="290" y="594" width="20" height="20" transform="rotate(0,300,604)"/><rect x="310" y="514" width="20" height="20" transform="rotate(0,320,524)"/><rect x="310" y="534" width="20" height="20" transform="rotate(0,320,544)"/><rect x="310" y="554" width="20" height="20" transform="rotate(0,320,564)"/><rect x="310" y="594" width="20" height="20" transform="rotate(0,320,604)"/><rect x="310" y="634" width="20" height="20" transform="rotate(0,320,644)"/><rect x="310" y="654" width="20" height="20" transform="rotate(0,320,664)"/><rect x="330" y="534" width="20" height="20" transform="rotate(0,340,544)"/><rect x="330" y="554" width="20" height="20" transform="rotate(0,340,564)"/><rect x="330" y="594" width="20" height="20" transform="rotate(0,340,604)"/><rect x="330" y="614" width="20" height="20" transform="rotate(0,340,624)"/><rect x="330" y="634" width="20" height="20" transform="rotate(0,340,644)"/><rect x="330" y="654" width="20" height="20" transform="rotate(0,340,664)"/><rect x="330" y="674" width="20" height="20" transform="rotate(0,340,684)"/><rect x="350" y="514" width="20" height="20" transform="rotate(0,360,524)"/><rect x="350" y="534" width="20" height="20" transform="rotate(0,360,544)"/><rect x="350" y="554" width="20" height="20" transform="rotate(0,360,564)"/><rect x="350" y="674" width="20" height="20" transform="rotate(0,360,684)"/><rect x="370" y="514" width="20" height="20" transform="rotate(0,380,524)"/><rect x="370" y="554" width="20" height="20" transform="rotate(0,380,564)"/><rect x="370" y="594" width="20" height="20" transform="rotate(0,380,604)"/><rect x="370" y="634" width="20" height="20" transform="rotate(0,380,644)"/><rect x="370" y="674" width="20" height="20" transform="rotate(0,380,684)"/><rect x="390" y="554" width="20" height="20" transform="rotate(0,400,564)"/><rect x="390" y="574" width="20" height="20" transform="rotate(0,400,584)"/><rect x="410" y="354" width="20" height="20" transform="rotate(0,420,364)"/><rect x="410" y="374" width="20" height="20" transform="rotate(0,420,384)"/><rect x="410" y="434" width="20" height="20" transform="rotate(0,420,444)"/><rect x="410" y="454" width="20" height="20" transform="rotate(0,420,464)"/><rect x="410" y="474" width="20" height="20" transform="rotate(0,420,484)"/><rect x="410" y="554" width="20" height="20" transform="rotate(0,420,564)"/><rect x="410" y="594" width="20" height="20" transform="rotate(0,420,604)"/><rect x="410" y="654" width="20" height="20" transform="rotate(0,420,664)"/><rect x="410" y="734" width="20" height="20" transform="rotate(0,420,744)"/><rect x="410" y="774" width="20" height="20" transform="rotate(0,420,784)"/><rect x="410" y="794" width="20" height="20" transform="rotate(0,420,804)"/><rect x="410" y="814" width="20" height="20" transform="rotate(0,420,824)"/><rect x="410" y="834" width="20" height="20" transform="rotate(0,420,844)"/><rect x="430" y="394" width="20" height="20" transform="rotate(0,440,404)"/><rect x="430" y="434" width="20" height="20" transform="rotate(0,440,444)"/><rect x="430" y="454" width="20" height="20" transform="rotate(0,440,464)"/><rect x="430" y="494" width="20" height="20" transform="rotate(0,440,504)"/><rect x="430" y="634" width="20" height="20" transform="rotate(0,440,644)"/><rect x="430" y="654" width="20" height="20" transform="rotate(0,440,664)"/><rect x="430" y="694" width="20" height="20" transform="rotate(0,440,704)"/><rect x="430" y="754" width="20" height="20" transform="rotate(0,440,764)"/><rect x="430" y="774" width="20" height="20" transform="rotate(0,440,784)"/><rect x="430" y="814" width="20" height="20" transform="rotate(0,440,824)"/><rect x="450" y="374" width="20" height="20" transform="rotate(0,460,384)"/><rect x="450" y="394" width="20" height="20" transform="rotate(0,460,404)"/><rect x="450" y="434" width="20" height="20" transform="rotate(0,460,444)"/><rect x="450" y="474" width="20" height="20" transform="rotate(0,460,484)"/><rect x="450" y="494" width="20" height="20" transform="rotate(0,460,504)"/><rect x="450" y="514" width="20" height="20" transform="rotate(0,460,524)"/><rect x="450" y="534" width="20" height="20" transform="rotate(0,460,544)"/><rect x="450" y="554" width="20" height="20" transform="rotate(0,460,564)"/><rect x="450" y="614" width="20" height="20" transform="rotate(0,460,624)"/><rect x="450" y="654" width="20" height="20" transform="rotate(0,460,664)"/><rect x="450" y="694" width="20" height="20" transform="rotate(0,460,704)"/><rect x="450" y="734" width="20" height="20" transform="rotate(0,460,744)"/><rect x="450" y="774" width="20" height="20" transform="rotate(0,460,784)"/><rect x="450" y="794" width="20" height="20" transform="rotate(0,460,804)"/><rect x="470" y="374" width="20" height="20" transform="rotate(0,480,384)"/><rect x="470" y="434" width="20" height="20" transform="rotate(0,480,444)"/><rect x="470" y="454" width="20" height="20" transform="rotate(0,480,464)"/><rect x="470" y="494" width="20" height="20" transform="rotate(0,480,504)"/><rect x="470" y="514" width="20" height="20" transform="rotate(0,480,524)"/><rect x="470" y="534" width="20" height="20" transform="rotate(0,480,544)"/><rect x="470" y="594" width="20" height="20" transform="rotate(0,480,604)"/><rect x="470" y="694" width="20" height="20" transform="rotate(0,480,704)"/><rect x="470" y="714" width="20" height="20" transform="rotate(0,480,724)"/><rect x="470" y="794" width="20" height="20" transform="rotate(0,480,804)"/><rect x="470" y="814" width="20" height="20" transform="rotate(0,480,824)"/><rect x="490" y="354" width="20" height="20" transform="rotate(0,500,364)"/><rect x="490" y="434" width="20" height="20" transform="rotate(0,500,444)"/><rect x="490" y="474" width="20" height="20" transform="rotate(0,500,484)"/><rect x="490" y="494" width="20" height="20" transform="rotate(0,500,504)"/><rect x="490" y="574" width="20" height="20" transform="rotate(0,500,584)"/><rect x="490" y="594" width="20" height="20" transform="rotate(0,500,604)"/><rect x="490" y="614" width="20" height="20" transform="rotate(0,500,624)"/><rect x="490" y="654" width="20" height="20" transform="rotate(0,500,664)"/><rect x="490" y="694" width="20" height="20" transform="rotate(0,500,704)"/><rect x="490" y="714" width="20" height="20" transform="rotate(0,500,724)"/><rect x="490" y="774" width="20" height="20" transform="rotate(0,500,784)"/><rect x="490" y="794" width="20" height="20" transform="rotate(0,500,804)"/><rect x="490" y="814" width="20" height="20" transform="rotate(0,500,824)"/><rect x="490" y="834" width="20" height="20" transform="rotate(0,500,844)"/><rect x="510" y="354" width="20" height="20" transform="rotate(0,520,364)"/><rect x="510" y="394" width="20" height="20" transform="rotate(0,520,404)"/><rect x="510" y="414" width="20" height="20" transform="rotate(0,520,424)"/><rect x="510" y="434" width="20" height="20" transform="rotate(0,520,444)"/><rect x="510" y="494" width="20" height="20" transform="rotate(0,520,504)"/><rect x="510" y="554" width="20" height="20" transform="rotate(0,520,564)"/><rect x="510" y="594" width="20" height="20" transform="rotate(0,520,604)"/><rect x="510" y="614" width="20" height="20" transform="rotate(0,520,624)"/><rect x="510" y="654" width="20" height="20" transform="rotate(0,520,664)"/><rect x="510" y="674" width="20" height="20" transform="rotate(0,520,684)"/><rect x="510" y="754" width="20" height="20" transform="rotate(0,520,764)"/><rect x="510" y="814" width="20" height="20" transform="rotate(0,520,824)"/><rect x="530" y="394" width="20" height="20" transform="rotate(0,540,404)"/><rect x="530" y="434" width="20" height="20" transform="rotate(0,540,444)"/><rect x="530" y="454" width="20" height="20" transform="rotate(0,540,464)"/><rect x="530" y="474" width="20" height="20" transform="rotate(0,540,484)"/><rect x="530" y="514" width="20" height="20" transform="rotate(0,540,524)"/><rect x="530" y="574" width="20" height="20" transform="rotate(0,540,584)"/><rect x="530" y="614" width="20" height="20" transform="rotate(0,540,624)"/><rect x="530" y="654" width="20" height="20" transform="rotate(0,540,664)"/><rect x="530" y="734" width="20" height="20" transform="rotate(0,540,744)"/><rect x="530" y="754" width="20" height="20" transform="rotate(0,540,764)"/><rect x="530" y="774" width="20" height="20" transform="rotate(0,540,784)"/><rect x="530" y="794" width="20" height="20" transform="rotate(0,540,804)"/><rect x="550" y="394" width="20" height="20" transform="rotate(0,560,404)"/><rect x="550" y="414" width="20" height="20" transform="rotate(0,560,424)"/><rect x="550" y="434" width="20" height="20" transform="rotate(0,560,444)"/><rect x="550" y="494" width="20" height="20" transform="rotate(0,560,504)"/><rect x="550" y="514" width="20" height="20" transform="rotate(0,560,524)"/><rect x="550" y="534" width="20" height="20" transform="rotate(0,560,544)"/><rect x="550" y="554" width="20" height="20" transform="rotate(0,560,564)"/><rect x="550" y="594" width="20" height="20" transform="rotate(0,560,604)"/><rect x="550" y="654" width="20" height="20" transform="rotate(0,560,664)"/><rect x="550" y="674" width="20" height="20" transform="rotate(0,560,684)"/><rect x="550" y="694" width="20" height="20" transform="rotate(0,560,704)"/><rect x="550" y="714" width="20" height="20" transform="rotate(0,560,724)"/><rect x="550" y="734" width="20" height="20" transform="rotate(0,560,744)"/><rect x="550" y="754" width="20" height="20" transform="rotate(0,560,764)"/><rect x="550" y="794" width="20" height="20" transform="rotate(0,560,804)"/><rect x="550" y="814" width="20" height="20" transform="rotate(0,560,824)"/><rect x="570" y="354" width="20" height="20" transform="rotate(0,580,364)"/><rect x="570" y="374" width="20" height="20" transform="rotate(0,580,384)"/><rect x="570" y="394" width="20" height="20" transform="rotate(0,580,404)"/><rect x="570" y="414" width="20" height="20" transform="rotate(0,580,424)"/><rect x="570" y="474" width="20" height="20" transform="rotate(0,580,484)"/><rect x="570" y="494" width="20" height="20" transform="rotate(0,580,504)"/><rect x="570" y="534" width="20" height="20" transform="rotate(0,580,544)"/><rect x="570" y="614" width="20" height="20" transform="rotate(0,580,624)"/><rect x="570" y="654" width="20" height="20" transform="rotate(0,580,664)"/><rect x="570" y="674" width="20" height="20" transform="rotate(0,580,684)"/><rect x="570" y="694" width="20" height="20" transform="rotate(0,580,704)"/><rect x="570" y="714" width="20" height="20" transform="rotate(0,580,724)"/><rect x="570" y="734" width="20" height="20" transform="rotate(0,580,744)"/><rect x="570" y="754" width="20" height="20" transform="rotate(0,580,764)"/><rect x="570" y="774" width="20" height="20" transform="rotate(0,580,784)"/><rect x="570" y="794" width="20" height="20" transform="rotate(0,580,804)"/><rect x="590" y="514" width="20" height="20" transform="rotate(0,600,524)"/><rect x="590" y="534" width="20" height="20" transform="rotate(0,600,544)"/><rect x="590" y="574" width="20" height="20" transform="rotate(0,600,584)"/><rect x="590" y="674" width="20" height="20" transform="rotate(0,600,684)"/><rect x="590" y="754" width="20" height="20" transform="rotate(0,600,764)"/><rect x="610" y="574" width="20" height="20" transform="rotate(0,620,584)"/><rect x="610" y="614" width="20" height="20" transform="rotate(0,620,624)"/><rect x="610" y="674" width="20" height="20" transform="rotate(0,620,684)"/><rect x="610" y="714" width="20" height="20" transform="rotate(0,620,724)"/><rect x="610" y="754" width="20" height="20" transform="rotate(0,620,764)"/><rect x="630" y="514" width="20" height="20" transform="rotate(0,640,524)"/><rect x="630" y="594" width="20" height="20" transform="rotate(0,640,604)"/><rect x="630" y="674" width="20" height="20" transform="rotate(0,640,684)"/><rect x="630" y="754" width="20" height="20" transform="rotate(0,640,764)"/><rect x="630" y="774" width="20" height="20" transform="rotate(0,640,784)"/><rect x="630" y="794" width="20" height="20" transform="rotate(0,640,804)"/><rect x="630" y="814" width="20" height="20" transform="rotate(0,640,824)"/><rect x="630" y="834" width="20" height="20" transform="rotate(0,640,844)"/><rect x="650" y="514" width="20" height="20" transform="rotate(0,660,524)"/><rect x="650" y="534" width="20" height="20" transform="rotate(0,660,544)"/><rect x="650" y="554" width="20" height="20" transform="rotate(0,660,564)"/><rect x="650" y="674" width="20" height="20" transform="rotate(0,660,684)"/><rect x="650" y="694" width="20" height="20" transform="rotate(0,660,704)"/><rect x="650" y="714" width="20" height="20" transform="rotate(0,660,724)"/><rect x="650" y="734" width="20" height="20" transform="rotate(0,660,744)"/><rect x="650" y="754" width="20" height="20" transform="rotate(0,660,764)"/><rect x="650" y="774" width="20" height="20" transform="rotate(0,660,784)"/><rect x="650" y="794" width="20" height="20" transform="rotate(0,660,804)"/><rect x="670" y="574" width="20" height="20" transform="rotate(0,680,584)"/><rect x="670" y="614" width="20" height="20" transform="rotate(0,680,624)"/><rect x="670" y="674" width="20" height="20" transform="rotate(0,680,684)"/><rect x="670" y="694" width="20" height="20" transform="rotate(0,680,704)"/><rect x="670" y="714" width="20" height="20" transform="rotate(0,680,724)"/><rect x="670" y="734" width="20" height="20" transform="rotate(0,680,744)"/><rect x="670" y="794" width="20" height="20" transform="rotate(0,680,804)"/><rect x="670" y="814" width="20" height="20" transform="rotate(0,680,824)"/><rect x="670" y="834" width="20" height="20" transform="rotate(0,680,844)"/><rect x="690" y="534" width="20" height="20" transform="rotate(0,700,544)"/><rect x="690" y="554" width="20" height="20" transform="rotate(0,700,564)"/><rect x="690" y="574" width="20" height="20" transform="rotate(0,700,584)"/><rect x="690" y="614" width="20" height="20" transform="rotate(0,700,624)"/><rect x="690" y="634" width="20" height="20" transform="rotate(0,700,644)"/><rect x="690" y="714" width="20" height="20" transform="rotate(0,700,724)"/><rect x="690" y="774" width="20" height="20" transform="rotate(0,700,784)"/><rect x="690" y="814" width="20" height="20" transform="rotate(0,700,824)"/><rect x="710" y="514" width="20" height="20" transform="rotate(0,720,524)"/><rect x="710" y="554" width="20" height="20" transform="rotate(0,720,564)"/><rect x="710" y="574" width="20" height="20" transform="rotate(0,720,584)"/><rect x="710" y="654" width="20" height="20" transform="rotate(0,720,664)"/><rect x="710" y="694" width="20" height="20" transform="rotate(0,720,704)"/><rect x="710" y="714" width="20" height="20" transform="rotate(0,720,724)"/><rect x="710" y="734" width="20" height="20" transform="rotate(0,720,744)"/><rect x="710" y="754" width="20" height="20" transform="rotate(0,720,764)"/><rect x="710" y="774" width="20" height="20" transform="rotate(0,720,784)"/><rect x="710" y="794" width="20" height="20" transform="rotate(0,720,804)"/><rect x="710" y="814" width="20" height="20" transform="rotate(0,720,824)"/><rect x="730" y="514" width="20" height="20" transform="rotate(0,740,524)"/><rect x="730" y="554" width="20" height="20" transform="rotate(0,740,564)"/><rect x="730" y="694" width="20" height="20" transform="rotate(0,740,704)"/><rect x="730" y="714" width="20" height="20" transform="rotate(0,740,724)"/><rect x="730" y="794" width="20" height="20" transform="rotate(0,740,804)"/><rect x="730" y="814" width="20" height="20" transform="rotate(0,740,824)"/><rect x="730" y="834" width="20" height="20" transform="rotate(0,740,844)"/></clipPath><clipPath id="clip-path-corners-square-color-0-0"><rect x="250" y="354" width="20" height="20" transform="rotate(0,260,364)"/><rect x="250" y="374" width="20" height="20" transform="rotate(0,260,384)"/><rect x="250" y="394" width="20" height="20" transform="rotate(0,260,404)"/><rect x="250" y="414" width="20" height="20" transform="rotate(0,260,424)"/><rect x="250" y="434" width="20" height="20" transform="rotate(0,260,444)"/><rect x="250" y="454" width="20" height="20" transform="rotate(0,260,464)"/><rect x="250" y="474" width="20" height="20" transform="rotate(0,260,484)"/><rect x="270" y="354" width="20" height="20" transform="rotate(0,280,364)"/><rect x="270" y="474" width="20" height="20" transform="rotate(0,280,484)"/><rect x="290" y="354" width="20" height="20" transform="rotate(0,300,364)"/><rect x="290" y="474" width="20" height="20" transform="rotate(0,300,484)"/><rect x="310" y="354" width="20" height="20" transform="rotate(0,320,364)"/><rect x="310" y="474" width="20" height="20" transform="rotate(0,320,484)"/><rect x="330" y="354" width="20" height="20" transform="rotate(0,340,364)"/><rect x="330" y="474" width="20" height="20" transform="rotate(0,340,484)"/><rect x="350" y="354" width="20" height="20" transform="rotate(0,360,364)"/><rect x="350" y="474" width="20" height="20" transform="rotate(0,360,484)"/><rect x="370" y="354" width="20" height="20" transform="rotate(0,380,364)"/><rect x="370" y="374" width="20" height="20" transform="rotate(0,380,384)"/><rect x="370" y="394" width="20" height="20" transform="rotate(0,380,404)"/><rect x="370" y="414" width="20" height="20" transform="rotate(0,380,424)"/><rect x="370" y="434" width="20" height="20" transform="rotate(0,380,444)"/><rect x="370" y="454" width="20" height="20" transform="rotate(0,380,464)"/><rect x="370" y="474" width="20" height="20" transform="rotate(0,380,484)"/></clipPath><clipPath id="clip-path-corners-dot-color-0-0"><rect x="290" y="394" width="20" height="20" transform="rotate(0,300,404)"/><rect x="290" y="414" width="20" height="20" transform="rotate(0,300,424)"/><rect x="290" y="434" width="20" height="20" transform="rotate(0,300,444)"/><rect x="310" y="394" width="20" height="20" transform="rotate(0,320,404)"/><rect x="310" y="414" width="20" height="20" transform="rotate(0,320,424)"/><rect x="310" y="434" width="20" height="20" transform="rotate(0,320,444)"/><rect x="330" y="394" width="20" height="20" transform="rotate(0,340,404)"/><rect x="330" y="414" width="20" height="20" transform="rotate(0,340,424)"/><rect x="330" y="434" width="20" height="20" transform="rotate(0,340,444)"/></clipPath><clipPath id="clip-path-corners-square-color-1-0"><rect x="610" y="354" width="20" height="20" transform="rotate(0,620,364)"/><rect x="610" y="374" width="20" height="20" transform="rotate(0,620,384)"/><rect x="610" y="394" width="20" height="20" transform="rotate(0,620,404)"/><rect x="610" y="414" width="20" height="20" transform="rotate(0,620,424)"/><rect x="610" y="434" width="20" height="20" transform="rotate(0,620,444)"/><rect x="610" y="454" width="20" height="20" transform="rotate(0,620,464)"/><rect x="610" y="474" width="20" height="20" transform="rotate(0,620,484)"/><rect x="630" y="354" width="20" height="20" transform="rotate(0,640,364)"/><rect x="630" y="474" width="20" height="20" transform="rotate(0,640,484)"/><rect x="650" y="354" width="20" height="20" transform="rotate(0,660,364)"/><rect x="650" y="474" width="20" height="20" transform="rotate(0,660,484)"/><rect x="670" y="354" width="20" height="20" transform="rotate(0,680,364)"/><rect x="670" y="474" width="20" height="20" transform="rotate(0,680,484)"/><rect x="690" y="354" width="20" height="20" transform="rotate(0,700,364)"/><rect x="690" y="474" width="20" height="20" transform="rotate(0,700,484)"/><rect x="710" y="354" width="20" height="20" transform="rotate(0,720,364)"/><rect x="710" y="474" width="20" height="20" transform="rotate(0,720,484)"/><rect x="730" y="354" width="20" height="20" transform="rotate(0,740,364)"/><rect x="730" y="374" width="20" height="20" transform="rotate(0,740,384)"/><rect x="730" y="394" width="20" height="20" transform="rotate(0,740,404)"/><rect x="730" y="414" width="20" height="20" transform="rotate(0,740,424)"/><rect x="730" y="434" width="20" height="20" transform="rotate(0,740,444)"/><rect x="730" y="454" width="20" height="20" transform="rotate(0,740,464)"/><rect x="730" y="474" width="20" height="20" transform="rotate(0,740,484)"/></clipPath><clipPath id="clip-path-corners-dot-color-1-0"><rect x="650" y="394" width="20" height="20" transform="rotate(0,660,404)"/><rect x="650" y="414" width="20" height="20" transform="rotate(0,660,424)"/><rect x="650" y="434" width="20" height="20" transform="rotate(0,660,444)"/><rect x="670" y="394" width="20" height="20" transform="rotate(0,680,404)"/><rect x="670" y="414" width="20" height="20" transform="rotate(0,680,424)"/><rect x="670" y="434" width="20" height="20" transform="rotate(0,680,444)"/><rect x="690" y="394" width="20" height="20" transform="rotate(0,700,404)"/><rect x="690" y="414" width="20" height="20" transform="rotate(0,700,424)"/><rect x="690" y="434" width="20" height="20" transform="rotate(0,700,444)"/></clipPath><clipPath id="clip-path-corners-square-color-0-1"><rect x="250" y="714" width="20" height="20" transform="rotate(0,260,724)"/><rect x="250" y="734" width="20" height="20" transform="rotate(0,260,744)"/><rect x="250" y="754" width="20" height="20" transform="rotate(0,260,764)"/><rect x="250" y="774" width="20" height="20" transform="rotate(0,260,784)"/><rect x="250" y="794" width="20" height="20" transform="rotate(0,260,804)"/><rect x="250" y="814" width="20" height="20" transform="rotate(0,260,824)"/><rect x="250" y="834" width="20" height="20" transform="rotate(0,260,844)"/><rect x="270" y="714" width="20" height="20" transform="rotate(0,280,724)"/><rect x="270" y="834" width="20" height="20" transform="rotate(0,280,844)"/><rect x="290" y="714" width="20" height="20" transform="rotate(0,300,724)"/><rect x="290" y="834" width="20" height="20" transform="rotate(0,300,844)"/><rect x="310" y="714" width="20" height="20" transform="rotate(0,320,724)"/><rect x="310" y="834" width="20" height="20" transform="rotate(0,320,844)"/><rect x="330" y="714" width="20" height="20" transform="rotate(0,340,724)"/><rect x="330" y="834" width="20" height="20" transform="rotate(0,340,844)"/><rect x="350" y="714" width="20" height="20" transform="rotate(0,360,724)"/><rect x="350" y="834" width="20" height="20" transform="rotate(0,360,844)"/><rect x="370" y="714" width="20" height="20" transform="rotate(0,380,724)"/><rect x="370" y="734" width="20" height="20" transform="rotate(0,380,744)"/><rect x="370" y="754" width="20" height="20" transform="rotate(0,380,764)"/><rect x="370" y="774" width="20" height="20" transform="rotate(0,380,784)"/><rect x="370" y="794" width="20" height="20" transform="rotate(0,380,804)"/><rect x="370" y="814" width="20" height="20" transform="rotate(0,380,824)"/><rect x="370" y="834" width="20" height="20" transform="rotate(0,380,844)"/></clipPath><clipPath id="clip-path-corners-dot-color-0-1"><rect x="290" y="754" width="20" height="20" transform="rotate(0,300,764)"/><rect x="290" y="774" width="20" height="20" transform="rotate(0,300,784)"/><rect x="290" y="794" width="20" height="20" transform="rotate(0,300,804)"/><rect x="310" y="754" width="20" height="20" transform="rotate(0,320,764)"/><rect x="310" y="774" width="20" height="20" transform="rotate(0,320,784)"/><rect x="310" y="794" width="20" height="20" transform="rotate(0,320,804)"/><rect x="330" y="754" width="20" height="20" transform="rotate(0,340,764)"/><rect x="330" y="774" width="20" height="20" transform="rotate(0,340,784)"/><rect x="330" y="794" width="20" height="20" transform="rotate(0,340,804)"/></clipPath></defs><defs/><ellipse fill="#595959" cx="500" cy="77.66" rx="84.18" ry="77.66"/>
			<ellipse fill="#000000" cx="500" cy="355.25" rx="431.82" ry="289.59"/>
			<ellipse fill="#000000" cx="500" cy="462.67" rx="449.3" ry="227.62"/>
			<path fill="#000000" d="M979.16,1103.64c0-31.96,0-88.8,0-88.8l-957.45-9.33c0,0-0.88,58.47-0.88,98.13C20.84,1212.08,235.37,1300,500,1300 S979.16,1212.08,979.16,1103.64z"/>
			<ellipse fill="#595959" cx="500" cy="966.52" rx="500" ry="253.31"/>
			<ellipse fill="#000000" cx="500" cy="940.02" rx="449.3" ry="227.62"/>
			<path fill="null" d="M847.48,955.96H152.52V301c0-22.09,17.91-40,40-40h614.96c22.09,0,40,17.91,40,40V955.96z"/>
			<path fill="#000000" d="M820.75,277.73c5.51,0,10,4.49,10,10v651.5h-661.5v-651.5c0-5.51,4.49-10,10-10H820.75 M820.75,247.73h-641.5 c-22.09,0-40,17.91-40,40v681.5h721.5v-681.5C860.75,265.64,842.84,247.73,820.75,247.73L820.75,247.73z"/>
			<path fill="#595959" d="M500,182.86c-276.14,0-500,113.41-500,253.31c0,68.07,53.01,129.87,139.25,175.39v-13.19 c-55.63-37.89-88.55-84.85-88.55-135.7c0-125.71,201.16-227.62,449.3-227.62s449.3,101.91,449.3,227.62 c0,50.85-32.92,97.81-88.55,135.7v13.19C946.99,566.05,1000,504.25,1000,436.17C1000,296.27,776.14,182.86,500,182.86z"/>
			<text fill="#ffffff" font-size="90" x="50%" y="1031" dominant-baseline="middle" text-anchor="middle" font-family="sans-serif">Scan me!</text><rect x="215" y="319" height="571" width="570" clip-path="url('#clip-path-background-color')" fill="#ffffff"/><rect x="250" y="354" height="500" width="500" clip-path="url('#clip-path-dot-color')" fill="#000000"/><rect x="250" y="354" height="140" width="140" clip-path="url('#clip-path-corners-square-color-0-0')" fill="#000000"/><rect x="290" y="394" height="60" width="60" clip-path="url('#clip-path-corners-dot-color-0-0')" fill="#000000"/><rect x="610" y="354" height="140" width="140" clip-path="url('#clip-path-corners-square-color-1-0')" fill="#000000"/><rect x="650" y="394" height="60" width="60" clip-path="url('#clip-path-corners-dot-color-1-0')" fill="#000000"/><rect x="250" y="714" height="140" width="140" clip-path="url('#clip-path-corners-square-color-0-1')" fill="#000000"/><rect x="290" y="754" height="60" width="60" clip-path="url('#clip-path-corners-dot-color-0-1')" fill="#000000"/></svg>