<svg width="1291" height="342" viewBox="0 0 1291 342" fill="none" xmlns="http://www.w3.org/2000/svg">
<path d="M0 210.42H47.148C47.3867 211.897 47.6053 213.293 47.8387 214.687C51.0573 233.891 63.1707 245.483 80.5453 252.336C93.512 257.451 107.188 258.16 120.939 257.936C130.771 257.777 140.449 256.625 149.592 252.716C156.457 249.78 162.12 245.217 166.576 239.272C173.513 230.016 172.368 216.44 164.097 208.232C157.211 201.397 148.851 197.015 139.633 194.447C117.568 188.301 95.3867 182.567 73.324 176.408C58.3907 172.24 44.144 166.385 31.7613 156.803C0.207998 132.384 2.87733 86.6534 23.424 64.3014C33.268 53.5934 45.1867 45.9881 58.8533 41.5174C92.676 30.4548 126.757 28.5308 160.925 40.2534C179.336 46.5708 194.601 57.1721 205.973 73.1614C215.972 87.2214 219.417 103.139 219.728 120.001C219.736 120.384 219.557 120.771 219.432 121.296H174.604C174.18 117.899 173.997 114.52 173.307 111.248C170.852 99.6094 163.804 91.3734 153.507 85.8734C137.733 77.4481 120.661 75.7374 103.16 76.8454C94.0933 77.4188 85.2147 79.0681 76.7587 82.5788C66.212 86.9588 58.9973 93.9068 58.2347 106.019C57.4787 118.036 63.068 126.327 73.0893 132.344C83.3987 138.535 94.856 141.407 106.299 144.335C125.903 149.351 145.597 154.021 165.155 159.208C175.633 161.987 185.395 166.729 194.565 172.488C211.981 183.424 221.433 199.132 222.511 219.804C223.435 237.547 220.185 253.995 208.128 267.8C198.253 279.107 185.62 286.261 171.664 291.195C146.632 300.043 120.805 301.603 94.6187 298.855C77.3107 297.037 60.716 292.624 45.144 284.585C18.576 270.868 3.41067 249.464 0.562667 219.573C0.486667 218.775 0.193333 217.996 0 217.207V210.42Z" fill="black"/>
<path d="M889.593 121.341H844.724C844.382 118.314 844.232 115.354 843.694 112.464C841.316 99.669 833.652 90.937 822.266 85.1796C806.81 77.365 790.254 75.789 773.296 76.845C764.121 77.417 755.133 79.0796 746.606 82.685C736.82 86.8223 729.697 93.2276 728.496 104.468C727.214 116.446 732.042 125.297 742.19 131.673C752.124 137.914 763.206 140.94 774.362 143.778C794.174 148.82 814.081 153.492 833.842 158.718C845.122 161.702 855.69 166.669 865.494 172.989C884.478 185.228 892.874 202.976 892.892 225.354C892.916 254.902 878.188 274.484 852.37 286.822C832.89 296.132 812.081 299.446 790.69 299.962C768.244 300.504 746.324 297.73 725.393 289.252C707.469 281.992 692.03 271.469 681.754 254.556C673.576 241.096 670.454 226.321 670.196 210.536H717.185C717.585 212.612 717.966 214.797 718.429 216.965C721.165 229.792 728.156 239.597 739.264 246.605C750.632 253.778 763.198 256.764 776.41 257.584C790.236 258.442 804.001 258.426 817.285 253.67C825.041 250.892 831.409 246.125 836.401 239.617C843.838 229.917 842.45 215.71 833.45 207.441C826.566 201.116 818.498 196.877 809.588 194.392C790.69 189.12 771.756 183.973 752.769 179.033C737.881 175.16 723.35 170.414 710.128 162.428C690.005 150.273 678.81 132.748 678.321 108.84C677.692 78.0876 693.245 57.905 720.004 45.2116C741.594 34.969 764.725 32.4756 788.298 32.6063C809.276 32.7236 829.232 37.3823 847.461 47.641C875.316 63.3143 889.64 87.3823 889.778 119.548C889.781 120.049 889.678 120.55 889.593 121.341Z" fill="black"/>
<path d="M505.044 204.461C506.347 212.89 507.046 222.066 509.291 230.846C512.744 244.345 520.634 254.474 534.831 258.265C543.587 260.603 552.499 260.775 561.458 259.507C575.011 257.589 584.15 250.35 588.915 237.417C596.695 216.305 596.816 195.023 590.434 173.658C586.576 160.743 578.563 151.546 564.758 149.047C558.646 147.941 552.243 147.382 546.07 147.853C524.959 149.459 513.011 159.894 508.459 180.566C506.792 188.141 506.224 195.957 505.044 204.461ZM594.712 144.051V107.01H642.86V294.809H602.619C600.026 284.693 597.443 274.617 594.663 263.771C592.88 266.678 591.608 268.953 590.148 271.099C577.012 290.419 558.398 299.227 535.351 299.594C524.894 299.761 514.596 298.893 504.636 295.474C487.548 289.609 477.047 277.175 470.222 261.059C463.434 245.03 460.698 228.197 460.155 210.918C459.486 189.605 461.183 168.622 468.963 148.509C475.174 132.451 484.578 119.118 501.032 112.074C513.523 106.727 526.634 105.779 540.059 106.587C554.571 107.461 567.212 112.561 578.21 121.986C584.338 127.238 588.668 133.799 592.416 140.817C593.014 141.933 593.546 143.083 594.107 144.218C594.31 144.162 594.511 144.106 594.712 144.051Z" fill="black"/>
<path d="M386.941 203.677C386.985 192.707 385.639 181.976 381.879 171.584C377.531 159.564 369.666 151.385 356.842 149.009C351.322 147.987 345.579 147.476 339.978 147.708C318.322 148.6 305.458 159.337 300.558 180.369C296.514 197.721 296.71 215.157 301.75 232.209C305.851 246.088 314.607 255.921 329.591 258.897C338.589 260.684 347.599 260.817 356.575 258.957C367.342 256.727 375.138 250.803 379.719 240.567C384.993 228.781 387.002 216.453 386.941 203.677ZM386.887 143.964V106.971H434.882V294.777H394.765C392.185 284.712 389.595 274.609 386.773 263.595C385.83 265.297 385.353 266.217 384.823 267.108C373.298 286.519 356.355 297.387 333.769 299.228C323.254 300.087 312.797 299.699 302.493 297.175C282.811 292.355 270.279 279.643 262.541 261.433C256.017 246.083 253.158 229.999 252.39 213.471C251.434 192.903 252.823 172.569 259.525 152.917C264.235 139.099 270.907 126.499 283.205 117.717C294.897 109.368 308.263 106.659 322.271 106.281C340.127 105.8 356.55 109.773 370.33 121.931C376.611 127.472 381.191 134.212 384.961 141.584C385.378 142.4 385.753 143.239 386.147 144.065C386.394 144.032 386.641 143.999 386.887 143.964Z" fill="black"/>
<path d="M946.782 194.504H962.603C962.351 197.728 961.959 200.766 961.902 203.81C961.455 227.279 970.767 246.415 988.587 261.278C1017.77 285.62 1049.39 306.223 1084.52 321.066C1095.06 325.519 1106.02 329.856 1117.64 328.03C1127.51 326.478 1137.37 323.808 1146.72 320.28C1182.51 306.782 1215.31 287.971 1244.57 263.263C1254.26 255.082 1263.19 246.115 1269.57 234.966C1272.69 229.504 1274.21 223.739 1274.06 217.33C1272.95 167.488 1272 117.643 1271.01 67.7989C1270.99 66.5883 1271.01 65.3749 1271.01 63.9616H1287.27C1287.27 70.7669 1287.16 77.5109 1287.29 84.2509C1288.15 128.648 1288.98 173.047 1290.03 217.44C1290.33 229.591 1285.34 239.556 1278.39 248.832C1267.79 262.967 1254.47 274.292 1240.28 284.603C1210.16 306.479 1177.89 324.37 1142.28 335.668C1133.64 338.411 1124.51 340.28 1115.48 341.026C1102.4 342.107 1090.13 337.592 1078.15 332.812C1054.44 323.354 1032.53 310.527 1011.68 295.984C998.378 286.707 985.126 277.146 973.076 266.348C954.002 249.258 944.78 227.372 945.984 201.499C946.088 199.255 946.487 197.026 946.782 194.504Z" fill="black"/>
<path d="M1286.14 41.1552H1270.45C1270.45 36.9446 1270.18 32.7659 1270.5 28.6299C1271.21 19.3712 1266 13.4086 1256.66 13.3019C1247.71 13.1979 1238.75 13.1752 1229.8 13.1646C1154.44 13.0806 1079.09 13.0086 1003.74 12.9286C997.252 12.9219 990.768 12.8712 984.282 12.8766C976.677 12.8819 972.373 16.7579 971.921 24.3806C970.797 43.3592 969.813 62.3472 968.772 81.3312C967.13 111.287 965.489 141.245 963.834 171.422H947.969C948.384 163.294 948.766 155.315 949.201 147.341C950.362 125.995 951.556 104.651 952.718 83.3059C953.792 63.6019 954.732 43.8899 955.94 24.1939C956.818 9.84722 967.47 0.141892 982.473 0.0578919C1005.22 -0.0701081 1027.97 0.0405498 1050.73 0.0738831C1067.3 0.0978831 1083.87 0.171218 1100.44 0.200551C1129.58 0.249885 1158.71 0.267231 1187.84 0.325897C1211.21 0.373897 1234.57 0.441893 1257.94 0.537893C1272.15 0.597893 1284 9.37122 1285.98 22.1712C1286.92 28.2659 1286.14 34.6246 1286.14 41.1552Z" fill="black"/>
<path d="M1100.57 132.972C1098.3 132.218 1096.49 131.614 1095.3 131.221C1096.16 124.314 1097.68 117.753 1097.66 111.197C1097.61 91.2943 1082.08 81.9183 1070.48 80.3357C1070.09 82.9037 1069.71 85.477 1069.33 88.017C1071.61 89.0783 1073.63 90.0157 1075.89 91.0623C1074.84 92.985 1073.93 94.6757 1072.97 96.425C1070.19 95.525 1067.55 94.329 1064.79 93.837C1050.44 91.2863 1039.4 97.4063 1029.96 107.465C1028.76 108.737 1027.67 110.114 1026.61 111.501C1024.93 113.708 1023.11 114.14 1020.87 112.241C1017.27 109.184 1013.6 106.193 1009.97 103.168C1008.07 101.585 1007.78 99.8717 1009.37 97.825C1015.5 89.9023 1022.9 83.5277 1032.11 78.9877C1033.12 80.7437 1034.09 82.413 1034.86 83.757C1028.43 88.8664 1022.14 93.8703 1015.37 99.2543C1018.36 101.784 1020.58 103.662 1022.96 105.673C1033.44 93.5143 1045.77 85.5983 1062.72 87.1103C1063.16 84.417 1063.56 81.9383 1064.11 78.585C1057.37 79.193 1051.09 79.7597 1044.32 80.3717C1043.92 78.945 1043.39 77.037 1042.74 74.6943C1047.09 73.9103 1051.2 73.169 1055.56 72.3837V66.8983C1036.6 66.6423 1012.43 79.1117 998.894 102.022C1001.74 104.428 1004.62 106.865 1007.65 109.426C1006.21 111.073 1004.89 112.586 1003.4 114.3C999.573 111.114 995.752 108.18 992.29 104.868C991.444 104.058 991.06 101.553 991.673 100.612C1003.93 81.7397 1019.69 67.2143 1042.33 62.0597C1059.85 58.0717 1076.99 59.2503 1092.75 68.6383C1108.24 77.8623 1116.15 91.8797 1117.04 109.801C1118.06 130.458 1109.93 147.492 1096.26 162.466C1087.29 172.302 1077.52 181.221 1067.12 189.49C1066.35 190.109 1065.62 190.785 1064.39 191.84C1066.02 191.916 1067.09 192.009 1068.16 192.009C1083.4 192.018 1098.64 192.012 1113.87 192.018C1118.33 192.021 1119.08 192.772 1119.09 197.214C1119.1 201.713 1119.09 206.212 1119.09 210.872H1112.73V198.696H1095.39V204.558C1097.46 204.558 1099.57 204.529 1101.67 204.565C1105.23 204.628 1106.16 205.458 1106.22 208.886C1106.29 213.1 1106.25 217.316 1106.22 221.532C1106.21 223.834 1105.18 225.265 1102.71 225.265C1081.51 225.272 1060.31 225.269 1038.87 225.269V219.108H1099.44V211.057H1077.08V204.53H1088.35V198.269H1084.93C1075.46 198.268 1065.99 198.256 1056.52 198.278C1054.69 198.282 1052.55 198.249 1052.35 196.13C1052.23 194.73 1053.15 192.772 1054.26 191.794C1063.81 183.348 1073.8 175.388 1083.06 166.649C1093.03 157.252 1102.25 147.096 1106.97 133.806C1111.06 122.289 1112.32 110.486 1108.72 98.6943C1103.07 80.205 1089.44 70.8223 1071.11 67.3157C1068.31 66.781 1065.44 66.6583 1062.37 66.3183V72.3957C1079.09 73.7023 1093.45 79.3757 1100.87 95.6463C1106.42 107.81 1104.86 120.27 1100.57 132.972Z" fill="black"/>
<path d="M1192.64 66.4123V72.3883C1209.69 73.7536 1224.13 79.6176 1231.38 96.3123C1236.6 108.332 1235.08 120.558 1230.8 132.91C1228.7 132.234 1226.88 131.648 1224.72 130.952C1225.03 129.895 1225.3 128.97 1225.58 128.047C1228.27 119.115 1229.14 110.12 1226.32 101.054C1223.02 90.4576 1211.34 80.9456 1200.7 80.3123C1200.33 82.7803 1199.96 85.2763 1199.57 87.8923C1201.81 88.9549 1203.9 89.9523 1206.18 91.0323C1205.16 92.9136 1204.24 94.6029 1203.6 95.7829C1198.59 94.8923 1193.93 93.4976 1189.23 93.3389C1176.68 92.9163 1167.45 99.5829 1159.41 108.374C1159.27 108.526 1159.15 108.691 1159.03 108.855C1153.72 115.92 1153.34 113.86 1148.31 109.826C1145.58 107.642 1142.94 105.35 1140.26 103.099C1138.64 101.731 1138.02 100.128 1139.39 98.255C1145.44 89.9843 1153.12 83.6549 1162.4 78.9136C1163.47 80.7656 1164.44 82.4416 1165.55 84.3776C1158.34 88.3736 1151.75 93.0283 1146.45 99.7869C1148.66 101.667 1150.82 103.504 1153.23 105.562C1163.66 93.4736 1176.08 85.5176 1193.03 86.9869C1193.48 84.2843 1193.89 81.7963 1194.44 78.4816C1187.66 79.1323 1181.28 79.7443 1174.67 80.3803C1174.24 78.8283 1173.74 76.9776 1173.11 74.6883C1177.42 73.9136 1181.54 73.1736 1185.91 72.3883V66.4683C1160.82 68.5216 1142.59 81.1163 1129.05 101.867C1130.56 103.148 1132.03 104.392 1133.5 105.638C1134.9 106.824 1136.3 108.014 1137.91 109.391C1136.48 111.06 1135.18 112.579 1133.71 114.294C1129.87 111.111 1126.15 108.082 1122.5 104.975C1120.94 103.655 1120.78 102.011 1121.92 100.304C1132.91 83.8749 1146.34 70.3296 1165.67 63.9949C1184.55 57.8083 1203.27 57.9803 1221.02 67.4883C1240.04 77.6776 1249.34 97.1203 1247.21 118.603C1245.4 136.816 1237.16 151.678 1224.57 164.296C1216.02 172.866 1206.78 180.755 1197.84 188.936C1196.94 189.763 1195.96 190.508 1194.27 191.91H1198.25C1213.59 191.91 1228.93 191.906 1244.27 191.912C1248.58 191.914 1249.31 192.644 1249.31 196.911C1249.32 201.427 1249.32 205.944 1249.32 210.696H1242.91C1242.91 207.506 1242.81 204.264 1242.94 201.034C1243.02 199.03 1242.35 198.3 1240.31 198.359C1236.1 198.479 1231.87 198.5 1227.65 198.359C1224.94 198.267 1225.41 200.026 1225.35 201.635C1225.29 203.303 1225.29 204.767 1227.67 204.576C1229.31 204.444 1230.96 204.555 1232.61 204.562C1235.11 204.572 1236.45 205.794 1236.46 208.33C1236.48 212.75 1236.48 217.171 1236.47 221.592C1236.46 223.936 1235.35 225.27 1232.91 225.266C1211.8 225.242 1190.7 225.214 1169.6 225.18C1169.51 225.18 1169.42 225.095 1169.15 224.946V219.043H1229.77V211.112H1207.29V204.483H1218.67V198.431C1217.62 198.378 1216.52 198.275 1215.43 198.274C1206.06 198.26 1196.69 198.271 1187.32 198.262C1185.38 198.259 1183.25 198.566 1182.45 196.082C1181.73 193.862 1183.29 192.73 1184.71 191.478C1195.67 181.84 1206.9 172.491 1217.45 162.42C1226.87 153.424 1234.87 143.166 1238.39 130.242C1242.63 114.643 1242.54 99.3896 1232.62 85.7283C1222.88 72.3336 1208.87 67.2429 1192.64 66.4123Z" fill="black"/>
<path d="M1135.28 231.274H1148.23V225.625C1141.66 224.519 1142.05 224.493 1141.59 217.786C1140.53 202.517 1146.68 190.303 1157.36 180.181C1165.25 172.705 1173.74 165.865 1182.2 158.537C1183.85 160.493 1185.15 162.025 1186.53 163.661C1180.6 168.547 1174.84 173.289 1168.82 178.255C1170.97 180.135 1172.79 181.731 1174.67 183.374C1191.02 169.659 1208.1 156.985 1220.41 139.117C1221.39 139.711 1222.25 140.206 1223.08 140.749C1223.93 141.307 1224.75 141.914 1226.23 142.953C1220.79 149.147 1215.9 155.651 1210.06 161.151C1200.64 170.025 1190.57 178.214 1180.82 186.735C1175.08 191.746 1169.78 197.142 1165.67 204.377H1197.79V210.773C1197.1 210.841 1196.32 210.985 1195.54 210.986C1184.53 211.001 1173.51 211.009 1162.49 210.989C1158.5 210.982 1157.29 209.399 1158.35 205.577C1160.12 199.234 1164.35 194.437 1168.51 189.599C1168.9 189.139 1169.31 188.687 1169.93 187.977C1167.95 186.242 1166.07 184.593 1164.23 182.982C1153.41 190.23 1146.6 205.586 1148.36 218.945H1159.69V225.187C1158.15 225.282 1156.75 225.369 1155.1 225.471V231.181H1242.74V219.897H1249.26C1249.26 224.935 1249.41 229.947 1249.14 234.937C1249.08 235.921 1247.54 237.093 1246.43 237.667C1245.52 238.135 1244.21 237.879 1243.08 237.879C1207.05 237.886 1171.01 237.886 1134.98 237.885C1129.26 237.883 1128.77 237.418 1128.8 231.813C1128.85 223.693 1128.45 215.531 1129.13 207.465C1130.32 193.631 1137.16 182.201 1146.9 172.811C1155.84 164.197 1165.87 156.722 1175.06 148.343C1181.33 142.618 1187.2 136.399 1192.84 130.033C1196.83 125.519 1198.35 119.771 1198.51 113.75C1198.64 108.694 1196.55 106.546 1191.43 106.045C1184.64 105.381 1178.58 107.319 1173.95 112.119C1168.84 117.421 1164.31 123.295 1159.63 129.007C1156.91 132.335 1155.59 132.595 1152.32 129.869C1149.25 127.305 1146.2 124.705 1143.01 122.006C1144.43 120.383 1145.75 118.879 1147.19 117.233C1149.88 119.429 1152.41 121.499 1155.24 123.805C1156.58 122.093 1157.77 120.333 1159.21 118.803C1163.61 114.101 1167.76 109.059 1172.67 104.945C1178.61 99.9727 1185.88 98.506 1193.59 99.858C1201.33 101.218 1205.03 105.681 1204.88 113.479C1204.84 115.411 1204.68 117.341 1204.57 119.425C1206.43 119.923 1208.19 120.397 1210.35 120.978C1211.77 114.559 1211.86 108.403 1208.73 102.254C1210.69 101.333 1212.42 100.518 1214.96 99.3207C1215.94 103.087 1217.36 106.527 1217.65 110.062C1218.51 120.298 1216.25 130.002 1210.35 138.449C1206.1 144.546 1201.03 150.079 1196.16 156.07C1194.16 154.154 1192.76 152.819 1191.29 151.418C1194.64 147.633 1198.11 144.133 1201.07 140.251C1204.03 136.375 1206.48 132.115 1209.49 127.511C1206.72 126.762 1204.82 126.247 1202.94 125.741C1196.59 138.186 1186.72 147.089 1176.41 155.689C1167.34 163.254 1158.13 170.755 1149.84 179.134C1139.79 189.301 1134.45 201.789 1135.24 216.483C1135.5 221.295 1135.28 226.134 1135.28 231.274Z" fill="black"/>
<path d="M1012.78 122.014C1014.29 120.31 1015.57 118.864 1017 117.244C1019.69 119.422 1022.28 121.523 1025.12 123.822C1027.23 121.062 1029.23 118.494 1031.2 115.895C1035.4 110.334 1040.29 105.548 1046.56 102.34C1052.27 99.4162 1058.31 98.7349 1064.56 100.026C1070.94 101.343 1074.69 105.966 1074.71 112.502C1074.72 114.744 1074.51 116.987 1074.38 119.454C1076.34 119.951 1078.19 120.42 1080.21 120.931C1081.62 114.5 1081.71 108.386 1078.52 102.251C1080.52 101.331 1082.32 100.498 1084.23 99.6175C1088.26 106.3 1088.04 113.343 1087.09 120.407C1085.37 133.176 1077.99 142.842 1069.45 151.828C1068.46 152.872 1067.42 153.87 1066.39 154.878C1066.17 155.091 1065.91 155.258 1065.63 155.479C1064.26 154 1062.91 152.531 1061.37 150.87C1067.8 144.068 1074.88 137.148 1078.6 127.374C1076.96 126.908 1075.46 126.352 1073.91 126.108C1073.32 126.015 1072.27 126.458 1072.01 126.958C1065.43 139.76 1054.64 148.622 1043.87 157.615C1035.12 164.919 1026.32 172.28 1018.46 180.492C1009.2 190.171 1004.31 202.015 1005.08 215.802C1005.36 220.823 1005.12 225.871 1005.12 231.154H1017.96V225.634C1017.78 225.534 1017.62 225.363 1017.44 225.354C1011.5 225.047 1011.8 224.916 1011.33 219.131C1009.97 202.303 1016.98 189.191 1029.04 178.322C1036.44 171.656 1044.14 165.338 1051.98 158.635C1053.59 160.498 1054.89 162.002 1056.32 163.659C1050.38 168.534 1044.68 173.212 1038.63 178.179C1040.67 180.032 1042.51 181.7 1044.4 183.414C1060.78 169.662 1077.89 157.014 1090.22 139.052C1092.08 140.283 1093.75 141.39 1096.19 143.004C1089.83 150.059 1084.16 157.262 1077.55 163.479C1068.35 172.138 1058.4 179.999 1048.87 188.318C1043.67 192.86 1039.07 197.968 1035.37 204.56H1067.53V210.847C1066.72 210.912 1065.93 211.031 1065.14 211.032C1054.22 211.044 1043.31 211.051 1032.39 211.036C1028.23 211.03 1026.96 209.423 1028.14 205.45C1029.88 199.58 1033.71 194.986 1037.6 190.448C1038.25 189.686 1038.93 188.942 1039.71 188.054C1037.7 186.283 1035.86 184.67 1033.75 182.814C1023.33 192.55 1016.14 203.475 1018.2 218.908H1029.46V225.146C1027.9 225.276 1026.5 225.394 1024.9 225.527V231.259H1112.59V219.827H1118.97C1118.97 224.96 1119.12 229.974 1118.85 234.964C1118.79 235.951 1117.22 237.083 1116.11 237.704C1115.31 238.15 1114.1 237.88 1113.07 237.88C1076.93 237.886 1040.79 237.886 1004.64 237.884C998.99 237.883 998.448 237.362 998.479 231.718C998.52 224.007 998.178 216.264 998.762 208.595C999.968 192.743 1008.17 180.282 1019.55 169.902C1029.04 161.247 1039.24 153.378 1048.91 144.919C1055.34 139.299 1061.67 133.36 1065.27 125.47C1067.01 121.666 1067.69 117.243 1068.13 113.024C1068.58 108.756 1066.34 106.69 1062.03 106.12C1054.41 105.115 1047.85 107.571 1042.71 112.976C1038.05 117.871 1033.95 123.31 1029.72 128.594C1026.56 132.531 1025.62 132.716 1021.81 129.543C1018.9 127.118 1015.99 124.691 1012.78 122.014Z" fill="black"/>
</svg>
